<svg xmlns="http://www.w3.org/2000/svg" width="23.262" height="16.837" viewBox="0 0 23.262 16.837">
  <g id="card" transform="translate(0 0)">
    <path id="路径_1" data-name="路径 1" d="M86.764,185.211H67.08a1.741,1.741,0,0,1-1.789-1.684v-13.47a1.741,1.741,0,0,1,1.789-1.684H86.764a1.741,1.741,0,0,1,1.789,1.684v13.47a1.741,1.741,0,0,1-1.789,1.684ZM67.08,170.058v13.47H86.765v-13.47Z" transform="translate(-65.291 -168.374)" fill="#444"/>
    <path id="路径_2" data-name="路径 2" d="M103.944,376.335H83.366a.895.895,0,0,1,0-1.789h20.578a.895.895,0,0,1,0,1.789Z" transform="translate(-82.024 -369.53)" fill="#444"/>
    <path id="路径_3" data-name="路径 3" d="M520.057,623.676h-8.052v1.342a.9.9,0,0,0,.895.895h6.263a.9.9,0,0,0,.895-.895Z" transform="translate(-500.374 -612.621)" fill="#4ba2fe"/>
  </g>
</svg>
