<svg xmlns="http://www.w3.org/2000/svg" width="15.348" height="15.348" viewBox="0 0 15.348 15.348">
  <path id="路径_4" data-name="路径 4" d="M7.674,0A7.674,7.674,0,1,1,0,7.674,7.675,7.675,0,0,1,7.674,0Zm0,14.547A6.873,6.873,0,1,0,.8,7.674a6.885,6.885,0,0,0,6.873,6.873ZM7.989,4.154l2.969,6.807a.4.4,0,0,1-.2.534.306.306,0,0,1-.167.033.41.41,0,0,1-.367-.233L9.289,9.125H6.019l-.934,2.169a.41.41,0,0,1-.367.233.3.3,0,0,1-.167-.033.4.4,0,0,1-.2-.534l2.9-6.807a.361.361,0,0,1,.367-.233.39.39,0,0,1,.367.234Zm-1.7,4.171h2.6l-1.3-3.036-1.3,3.036Z" fill="#fff"/>
</svg>
